<svg xmlns="http://www.w3.org/2000/svg" width="1000" height="401" viewBox="0 0 1000 401"><svg viewBox="0 0 396 159" data-background-color="#ffffff" height="401" width="1000" xmlns="http://www.w3.org/2000/svg" xmlns:xlink="http://www.w3.org/1999/xlink" transform="translate(-.606 -.587)"><svg viewBox="0 0 395.52 158.535" height="158.535" width="395.52" transform="translate(.24 .233)"><svg viewBox="0 0 395.52 158.535" height="158.535" width="395.52"><svg viewBox="0 0 395.52 158.535" height="158.535" width="395.52"><svg viewBox="0 0 395.52 158.535" height="158.535" width="395.52"><svg viewBox="0 0 395.52 158.535" height="158.535" width="395.52"><svg width="395.52" viewBox="1.6 -29.05 96.79 38.8" height="158.535" data-palette-color="#afafaf"><path d="M1.7-18.65q-.1-.65-.1-.8.7-3.75 7.35-7.15 5.25-2.45 12.4-2.45 4.4 0 8.7 1.2 2.9 1 4.4 2.85 1.5 1.85 1.5 3.75 0 2.9-2.3 5.12-2.3 2.23-5.15 3.43Q22.15-9.95 14-9.65q.65.8 2.1 2.62 1.45 1.83 2.2 2.73.75.9 2.18 2.52Q21.9-.15 22.88.73q.97.87 2.47 2.1 1.5 1.22 2.85 1.92 4.7 2.5 8.2 2.5l1.7-.15q1.7-.3 2.7-1.37 1-1.08 1-2.38 0-.5-.12-1.08-.13-.57.32-.57.5.05.68.73.17.67.17 1.67 0 1-.5 2.3-.55 1.8-3.05 2.75-1.6.6-3 .6-4.2 0-8.5-2.35-2.85-1.6-5.12-3.97-2.28-2.38-3.8-4.28-1.53-1.9-3.4-4.73-1.88-2.82-2.63-3.77l-.35-.05q-3.8 7-3.8 8.45 0 .75.65.75t1.75-1.38q1.1-1.37 1.5-1.32.3.3-.65 1.3-.1.1-.35.53-.25.42-.42.67-.18.25-.48.65t-.55.65q-.25.25-.55.5-.6.5-1.05.5-.45 0-1.25-.17-.8-.18-.8-.68 0-2.25 4.1-10.45-1.65-.15-1.65-1.2 0-.2.05-.5.35-.85 1.28-.85.92 0 1.47.45.4-.8.95-1.8 1.95-3.5 1.95-4.45 0-.25-.05-.5.2-1.4 2.43-3.68 2.22-2.27 4.02-2.27.6 0 1.6.45t1.2 1.25q.05.35.03.42-.03.08-.28-.02t-.3-.1q-3.5 0-10 11.35.6.25 1.18.25.57 0 .97-.05 5.1-.55 9.98-2.4Q30.3-14.9 33-17.7q1.75-1.7 1.75-3.6 0-5.6-11.45-5.6-6.55 0-12.5 2-3.1 1.1-5.27 2.95-2.18 1.85-2.58 4.2-.05.25-.05.65t.33.97q.32.58.77.88.45.3 1.28.7.82.4 1.1.6.27.2.12.42-.15.23-.65.13-1.55-.25-2.9-1.55-1.35-1.3-1.35-2.8 0-.45.1-.9Zm38.8 4.1q2.7 0 2.7 2.6 0 1.35-.75 2.2Q41.2-7.9 38.4-6.53 35.6-5.15 33.65-5q-.7.05-.75-.4-.05-.2.12-.25.18-.05.28-.05 1.15-.1 2.95-1.1 3.35-1.8 4.9-3.7.65-.9.65-1.73 0-.82-.8-.82-.65 0-1.75.55-2.35 1.1-4.95 3.82-2.6 2.73-3.4 5.33-.25.8-.25 1.57 0 .78.65 1.48t2 .7q1.5 0 3.45-.8 5.65-2.3 8.7-6.95.3-.4.55-.15.2.1.2.25t-.15.35q-1.5 2.5-3.8 4.45-4.45 3.8-8.65 3.8-3.6 0-5.05-2.15Q28-1.65 28-2.85q0-1.2.65-2.85Q29.9-8.55 34-11.55q4.1-3 6.5-3Zm7 3.4q0-2.4-1.4-2.4-.3 0-.63.07-.32.08-.32-.12t.3-.5q.3-.25 2.05-.4 2.1 0 2.62.6.53.6.53 1.2t-.93 2.97q-.92 2.38-.97 2.48-1.5 4.5-1.35 5.65 4.5-6.05 5.9-7.55 2.95-3.25 4.2-4.45 2.9-2.7 5.1-3.65.65-.25 1.15-.25 1.65 0 2.25 1 .2.25.2.47 0 .23-.15.53-.15.3-.55-.03-.41-.32-1.8-.32-2.3 0-7.7 5.4-3.25 3.35-5.98 7Q47.3.2 47.1 1.75q0 .4-.75.4t-1.13-.62Q44.85.9 44.85.48q0-.43.05-.76.05-.32 1-3.67t1.2-4.45q-.6 1-1.65 2.45-.35.4-.58.22-.22-.17-.22-.32t.1-.35q2.1-2.85 2.75-4.75Zm24.69-3.4q2.7 0 2.7 2.6 0 1.35-.75 2.2-1.25 1.85-4.05 3.22-2.8 1.38-4.75 1.53-.7.05-.75-.4-.05-.2.13-.25.17-.05.27-.05 1.15-.1 2.95-1.1 3.35-1.8 4.9-3.7.65-.9.65-1.73 0-.82-.8-.82-.65 0-1.75.55-2.35 1.1-4.95 3.82-2.6 2.73-3.4 5.33-.25.8-.25 1.57 0 .78.65 1.48t2 .7q1.5 0 3.45-.8 5.65-2.3 8.7-6.95.3-.4.55-.15.2.1.2.25t-.15.35q-1.5 2.5-3.8 4.45-4.45 3.8-8.65 3.8-3.6 0-5.05-2.15-.55-.85-.55-2.05 0-1.2.65-2.85 1.25-2.85 5.35-5.85 4.1-3 6.5-3Zm18.3.35q1.15 0 1.15 1.22 0 1.23-1.15 3.38t-1.7 3.5q-.95 2.3-.95 3.67 0 1.38.4 1.83.75.8 2.05.07 1.3-.72 3.63-2.8 2.32-2.07 3.72-4.07.2-.25.48-.13.27.13.27.25 0 .13-.1.28-.75 1.35-2.7 3.45-1.95 2.1-3.75 3.37-1.8 1.28-3.55 1.28-1.7-.05-2.4-.77-.7-.73-.7-1.83t.2-2.13q.2-1.02.75-2.37.9-2.15 1.58-3.35.67-1.2.67-1.58 0-.37-.4-.37-.8 0-3.05 1.95-1.55 1.45-4.57 5.47Q77.34.15 76.94.4q-1.8.9-2.25.9-.45 0-.45-.15t.1-.42L75.31-2q.88-2.45 1.91-5.38 1.02-2.92 1.25-3.52.22-.6.3-1.03.07-.42.17-.72t.37-.68q.28-.37.73-.4.45-.02 1.15.1.7.13.7.63 0 .35-.55 1.52-.55 1.18-3.15 8.08 1.8-2.2 4.55-5.07 2.75-2.88 4.65-4.38 1.9-1.35 3.1-1.35Z" fill="#afafaf" class="undefined-text-0" data-fill-palette-color="primary"/></svg></svg></svg></svg></svg></svg></svg></svg>